<svg xmlns="http://www.w3.org/2000/svg" viewBox="0 0 64 64" fill="none">
  <defs>
    <linearGradient id="g" x1="10" y1="10" x2="54" y2="54" gradientUnits="userSpaceOnUse">
      <stop offset="0" stop-color="hsl(262 83% 58%)" />
      <stop offset="0.42" stop-color="hsl(195 85% 55%)" />
      <stop offset="0.72" stop-color="hsl(175 75% 45%)" />
      <stop offset="1" stop-color="hsl(160 84% 45%)" />
    </linearGradient>
  </defs>

  <path
    d="M58.5 32 C58.5 32.82 57.88 33.75 57.06 34.47 C56.24 35.18 54.75 35.79 53.58 36.29 C52.4 36.79 50.91 37.06 50.01 37.46 C49.11 37.86 48.4 38.13 48.17 38.7 C47.93 39.26 48.24 39.95 48.6 40.87 C48.95 41.79 49.81 43.04 50.29 44.22 C50.77 45.41 51.39 46.89 51.47 47.98 C51.54 49.06 51.32 50.16 50.74 50.74 C50.16 51.32 49.06 51.54 47.98 51.47 C46.89 51.39 45.41 50.77 44.22 50.29 C43.04 49.81 41.79 48.95 40.87 48.6 C39.95 48.24 39.26 47.93 38.7 48.17 C38.13 48.4 37.86 49.11 37.46 50.01 C37.06 50.91 36.79 52.4 36.29 53.58 C35.79 54.75 35.18 56.24 34.47 57.06 C33.75 57.88 32.82 58.5 32 58.5 C31.18 58.5 30.25 57.88 29.53 57.06 C28.82 56.24 28.21 54.75 27.71 53.58 C27.21 52.4 26.94 50.91 26.54 50.01 C26.14 49.11 25.87 48.4 25.3 48.17 C24.74 47.93 24.05 48.24 23.13 48.6 C22.21 48.95 20.96 49.81 19.78 50.29 C18.59 50.77 17.11 51.39 16.02 51.47 C14.94 51.54 13.84 51.32 13.26 50.74 C12.68 50.16 12.46 49.06 12.53 47.98 C12.61 46.89 13.23 45.41 13.71 44.22 C14.19 43.04 15.05 41.79 15.4 40.87 C15.76 39.95 16.07 39.26 15.83 38.7 C15.6 38.13 14.89 37.86 13.99 37.46 C13.09 37.06 11.6 36.79 10.42 36.29 C9.25 35.79 7.76 35.18 6.94 34.47 C6.12 33.75 5.5 32.82 5.5 32 C5.5 31.18 6.12 30.25 6.94 29.53 C7.76 28.82 9.25 28.21 10.42 27.71 C11.6 27.21 13.09 26.94 13.99 26.54 C14.89 26.14 15.6 25.87 15.83 25.3 C16.07 24.74 15.76 24.05 15.4 23.13 C15.05 22.21 14.19 20.96 13.71 19.78 C13.23 18.59 12.61 17.11 12.53 16.02 C12.46 14.94 12.68 13.84 13.26 13.26 C13.84 12.68 14.94 12.46 16.02 12.53 C17.11 12.61 18.59 13.23 19.78 13.71 C20.96 14.19 22.21 15.05 23.13 15.4 C24.05 15.76 24.74 16.07 25.3 15.83 C25.87 15.6 26.14 14.89 26.54 13.99 C26.94 13.09 27.21 11.6 27.71 10.42 C28.21 9.25 28.82 7.76 29.53 6.94 C30.25 6.12 31.18 5.5 32 5.5 C32.82 5.5 33.75 6.12 34.47 6.94 C35.18 7.76 35.79 9.25 36.29 10.42 C36.79 11.6 37.06 13.09 37.46 13.99 C37.86 14.89 38.13 15.6 38.7 15.83 C39.26 16.07 39.95 15.76 40.87 15.4 C41.79 15.05 43.04 14.19 44.22 13.71 C45.41 13.23 46.89 12.61 47.98 12.53 C49.06 12.46 50.16 12.68 50.74 13.26 C51.32 13.84 51.54 14.94 51.47 16.02 C51.39 17.11 50.77 18.59 50.29 19.78 C49.81 20.96 48.95 22.21 48.6 23.13 C48.24 24.05 47.93 24.74 48.17 25.3 C48.4 25.87 49.11 26.14 50.01 26.54 C50.91 26.94 52.4 27.21 53.58 27.71 C54.75 28.21 56.24 28.82 57.06 29.53 C57.88 30.25 58.5 31.18 58.5 32 Z"
    stroke="url(#g)"
    stroke-width="6"
    stroke-linecap="round"
    stroke-linejoin="round"
    opacity="0.98"
  />
  <path
    d="M25 22 L25 42 L44 32 Z"
    stroke="url(#g)"
    stroke-width="6"
    stroke-linecap="round"
    stroke-linejoin="round"
  />
</svg>
